IKResults
version=1
nRows=8
nColumns=40
inDegrees=yes

Units are S.I. units (second, meters, Newtons, ...)
Angles are in degrees.

endheader
time	pelvis_tilt	pelvis_list	pelvis_rotation	pelvis_tx	pelvis_ty	pelvis_tz	hip_flexion_r	hip_adduction_r	hip_rotation_r	knee_angle_r	knee_angle_r_beta	ankle_angle_r	subtalar_angle_r	mtp_angle_r	hip_flexion_l	hip_adduction_l	hip_rotation_l	knee_angle_l	knee_angle_l_beta	ankle_angle_l	subtalar_angle_l	mtp_angle_l	lumbar_extension	lumbar_bending	lumbar_rotation	arm_flex_r	arm_add_r	arm_rot_r	elbow_flex_r	pro_sup_r	wrist_flex_r	wrist_dev_r	arm_flex_l	arm_add_l	arm_rot_l	elbow_flex_l	pro_sup_l	wrist_flex_l	wrist_dev_l
      0.36000000	     17.83444302	      2.39780614	     -6.19221402	     -0.29741858	      0.94121769	      0.97474399	    -12.54483991	     -7.74595036	     -3.27794636	    -61.51551067	     -1.07364820	    -17.45203545	    -16.33085319	     11.81809949	     -5.25797776	     -5.00648705	     15.48599931	    -19.85053104	     -0.34645713	      6.61364149	      4.34225527	     -5.32563822	    -22.36713134	     -6.66143851	      1.91365275	     -6.70986411	    -13.06898233	     -0.02165847	     49.95611261	     89.95437384	      0.00000000	      0.00000000	    -11.13228618	      8.06788419	     10.52121395	     13.47759258	     89.95437384	      0.00000000	      0.00000000
      0.37000000	     18.25900567	      2.12990423	     -6.47237095	     -0.28404670	      0.94342983	      0.97431499	    -11.26959973	     -7.57069656	     -2.82181492	    -63.08029122	     -1.10095877	    -14.76585558	    -15.90496066	     11.66729099	     -7.05757346	     -5.03101328	     15.82830270	    -19.13296328	     -0.33393320	      6.85345393	      4.19333534	     -5.06976248	    -22.81459961	     -6.42395854	      1.86252006	     -7.08150691	    -13.15911434	      0.54061976	     49.34436077	     89.95437384	      0.00000000	      0.00000000	    -10.71172206	      8.28608857	      8.64318478	     14.33047184	     89.95437384	      0.00000000	      0.00000000
      0.38000000	     18.46674431	      1.65637302	     -6.34478812	     -0.27101617	      0.94533998	      0.97359114	     -9.88058117	     -6.95498565	     -2.66766132	    -64.19461819	     -1.12040745	    -12.90205536	    -16.09863101	     11.39747287	     -8.49882923	     -4.74412116	     15.58932262	    -18.62422557	     -0.32505406	      7.23367009	      3.86454274	     -5.00530445	    -23.13288353	     -5.83878548	      1.49140153	     -7.36325496	    -13.11441899	      0.87020688	     48.52413276	     89.95437384	      0.00000000	      0.00000000	     -9.93514355	      8.35222679	      8.12715941	     14.72476402	     89.95437384	      0.00000000	      0.00000000
      0.39000000	     18.82569145	      1.19604703	     -6.24727658	     -0.25792018	      0.94733653	      0.97287449	     -8.75038613	     -6.37231301	     -2.54578209	    -64.87597474	     -1.13229936	    -11.09410757	    -15.60670362	     11.32250964	    -10.18990249	     -4.52143969	     15.41021681	    -17.89298420	     -0.31229149	      7.46154279	      3.81102350	     -4.85350607	    -23.59472633	     -5.28931040	      1.17072921	     -7.72663733	    -13.14806095	      1.25504627	     47.77814441	     89.95437384	      0.00000000	      0.00000000	     -9.27475736	      8.57974671	      6.84506342	     15.43509373	     89.95437384	      0.00000000	      0.00000000
      0.40000000	     18.81956313	      0.82468947	     -6.02813795	     -0.24514635	      0.94863622	      0.97196451	     -7.15989168	     -5.85734362	     -2.68729910	    -65.38160614	     -1.14112430	     -9.93120799	    -15.62748820	     11.04847244	    -11.26186764	     -4.24500690	     15.27192751	    -17.55869530	     -0.30645705	      7.73564504	      3.58941984	     -4.79998546	    -23.68163696	     -4.75624323	      0.74082172	     -8.02711512	    -13.02650823	      1.39336272	     46.77536290	     89.95437384	      0.00000000	      0.00000000	     -8.40851908	      8.69255482	      6.57823333	     15.93250182	     89.95437384	      0.00000000	      0.00000000
      0.41000000	     18.79510988	      0.41210907	     -5.75075198	     -0.23240874	      0.94988359	      0.97116070	     -5.71270068	     -5.12557033	     -2.65810614	    -65.47739746	     -1.14279617	     -8.57591736	    -15.39370513	     10.75115489	    -12.41979596	     -3.92492274	     14.99076708	    -17.02680171	     -0.29717375	      8.07202706	      3.28700938	     -4.76471633	    -23.75280740	     -4.19193025	      0.26497537	     -8.27932524	    -12.91923973	      1.52692794	     45.61754020	     89.95437384	      0.00000000	      0.00000000	     -7.56423453	      8.89322316	      6.19779052	     16.48783203	     89.95437384	      0.00000000	      0.00000000
      0.42000000	     18.68369001	      0.17397286	     -5.36221255	     -0.22000665	      0.95061449	      0.97000277	     -4.06945629	     -4.80320264	     -3.15339922	    -65.48753863	     -1.14297317	     -7.81903408	    -15.20478664	     10.49761157	    -13.26457902	     -3.68549893	     15.41144538	    -16.72250323	     -0.29186274	      8.37638787	      3.27040237	     -4.70972022	    -23.79026972	     -3.72628591	     -0.32233095	     -8.66488229	    -12.86333696	      1.58699339	     44.76616814	     89.95437384	      0.00000000	      0.00000000	     -6.59422240	      9.09457063	      6.01378240	     17.03921226	     89.95437384	      0.00000000	      0.00000000
      0.43000000	     18.64963502	     -0.23813851	     -4.91849358	     -0.20726429	      0.95165091	      0.96925545	     -2.91855532	     -3.98971614	     -3.29614268	    -64.79241332	     -1.13084094	     -5.88686837	    -14.85257182	     10.10699100	    -14.47060871	     -3.30069171	     14.65033389	    -16.19490551	     -0.28265442	      8.67558803	      2.63519250	     -4.71258267	    -23.82093632	     -3.12937062	     -0.83407490	     -8.89246183	    -12.66688411	      1.53794080	     43.28291232	     89.95437384	      0.00000000	      0.00000000	     -5.71599735	      9.39160237	      5.60319489	     17.75018005	     89.95437384	      0.00000000	      0.00000000
